<?xml version="1.0" encoding="UTF-8" standalone="no"?>
<!-- Created with Inkscape (http://www.inkscape.org/) -->

<svg
   xmlns:dc="http://purl.org/dc/elements/1.1/"
   xmlns:cc="http://creativecommons.org/ns#"
   xmlns:rdf="http://www.w3.org/1999/02/22-rdf-syntax-ns#"
   xmlns:svg="http://www.w3.org/2000/svg"
   xmlns="http://www.w3.org/2000/svg"
   xmlns:sodipodi="http://sodipodi.sourceforge.net/DTD/sodipodi-0.dtd"
   xmlns:inkscape="http://www.inkscape.org/namespaces/inkscape"
   width="1000"
   height="317.88"
   viewBox="0 0 1000 317.88001"
   id="svg3491"
   version="1.1"
   inkscape:version="0.91 r13725"
   sodipodi:docname="aosc-os-gdm.svg">
  <defs
     id="defs3493" />
  <sodipodi:namedview
     id="base"
     pagecolor="#ffffff"
     bordercolor="#666666"
     borderopacity="1.0"
     inkscape:pageopacity="0.0"
     inkscape:pageshadow="2"
     inkscape:zoom="0.7"
     inkscape:cx="426.06439"
     inkscape:cy="190.53926"
     inkscape:document-units="px"
     inkscape:current-layer="layer1"
     showgrid="false"
     units="px"
     showguides="true"
     inkscape:guide-bbox="true"
     inkscape:window-width="1920"
     inkscape:window-height="995"
     inkscape:window-x="0"
     inkscape:window-y="420"
     inkscape:window-maximized="1">
    <sodipodi:guide
       position="69.700526,230.31478"
       orientation="1,0"
       id="guide3518" />
    <sodipodi:guide
       position="930.35049,152.53304"
       orientation="1,0"
       id="guide3520" />
  </sodipodi:namedview>
  <metadata
     id="metadata3496">
    <rdf:RDF>
      <cc:Work
         rdf:about="">
        <dc:format>image/svg+xml</dc:format>
        <dc:type
           rdf:resource="http://purl.org/dc/dcmitype/StillImage" />
        <dc:title></dc:title>
      </cc:Work>
    </rdf:RDF>
  </metadata>
  <g
     inkscape:label="Layer 1"
     inkscape:groupmode="layer"
     id="layer1"
     transform="translate(0,-734.48212)">
    <path
       style="fill:#ececec;fill-opacity:1;stroke:none"
       d="m 200.6397,768.7484 c -2.0373,0 -4.05542,0.0438 -6.06877,0.14071 l 4.21002,63.7826 c 0.49497,-0.0109 0.99556,-0.0157 1.49336,-0.0157 33.89299,0 61.37098,27.0474 61.37098,60.4067 0,9.46247 -2.20722,18.42411 -6.14823,26.39763 l 56.73201,29.38283 c 8.29156,-16.69545 12.96369,-35.51091 12.96369,-55.42099 0,-68.85666 -55.76428,-124.67379 -124.55306,-124.67379 z m -9.57976,0.35948 c -0.11187,0.009 -0.2219,0.0225 -0.33363,0.0312 l 0.0159,0.18754 0.39715,-0.21879 c -0.0263,9.5e-4 -0.0532,-9.5e-4 -0.0793,0 z M 90.988558,834.23456 c -9.50794,17.6098 -14.901888,37.76545 -14.901888,59.18762 0,68.8566 55.76432,124.67372 124.55303,124.67372 3.48895,0 6.94193,-0.1404 10.35825,-0.422 l -4.25766,-64.53272 c -2.12474,0.21897 -4.28237,0.32821 -6.46598,0.32821 -33.89298,0 -61.37096,-27.0474 -61.37096,-60.40669 0,-10.85661 2.91238,-21.04683 8.00698,-29.85167 L 90.988558,834.23456 Z"
       id="path2996"
       inkscape:connector-curvature="0" />
    <text
       xml:space="preserve"
       style="font-style:normal;font-variant:normal;font-weight:normal;font-stretch:normal;font-size:37.54999924px;line-height:1000%;font-family:'Noto Sans';-inkscape-font-specification:'Noto Sans, Normal';text-align:start;letter-spacing:0px;word-spacing:0px;writing-mode:lr-tb;text-anchor:start;fill:#000000;fill-opacity:1;stroke:none;stroke-width:1px;stroke-linecap:butt;stroke-linejoin:miter;stroke-opacity:1"
       x="361.23364"
       y="941.70703"
       id="text3514"
       sodipodi:linespacing="1000%"><tspan
         sodipodi:role="line"
         id="tspan3516"
         x="361.23364"
         y="941.70703"
         style="font-size:135px;fill:#e6e6e6">AOSC OS</tspan></text>
  </g>
</svg>
