<?xml version="1.0" encoding="UTF-8" standalone="no"?>
<!-- Created with Inkscape (http://www.inkscape.org/) -->

<svg
   xmlns:dc="http://purl.org/dc/elements/1.1/"
   xmlns:cc="http://creativecommons.org/ns#"
   xmlns:rdf="http://www.w3.org/1999/02/22-rdf-syntax-ns#"
   xmlns:svg="http://www.w3.org/2000/svg"
   xmlns="http://www.w3.org/2000/svg"
   xmlns:sodipodi="http://sodipodi.sourceforge.net/DTD/sodipodi-0.dtd"
   xmlns:inkscape="http://www.inkscape.org/namespaces/inkscape"
   id="svg2"
   version="1.1"
   inkscape:version="0.91 r13725"
   xml:space="preserve"
   width="80"
   height="96"
   viewBox="0 0 79.999996 95.999996"
   sodipodi:docname="aosc-2016-logo.svg"
   inkscape:export-filename="aosc-2016-logo.png"
   inkscape:export-xdpi="300.375"
   inkscape:export-ydpi="300.375"><metadata
     id="metadata8"><rdf:RDF><cc:Work
         rdf:about=""><dc:format>image/svg+xml</dc:format><dc:type
           rdf:resource="http://purl.org/dc/dcmitype/StillImage" /><dc:title /></cc:Work></rdf:RDF></metadata><defs
     id="defs6"><clipPath
       clipPathUnits="userSpaceOnUse"
       id="clipPath16"><path
         d="m 0,850.39 850.39,0 L 850.39,0 0,0 0,850.39 Z"
         id="path18"
         inkscape:connector-curvature="0" /></clipPath><clipPath
       clipPathUnits="userSpaceOnUse"
       id="clipPath32"><path
         d="m 0,850.39 850.39,0 L 850.39,0 0,0 0,850.39 Z"
         id="path34"
         inkscape:connector-curvature="0" /></clipPath><clipPath
       clipPathUnits="userSpaceOnUse"
       id="clipPath154"><path
         d="m 0,850.39 850.39,0 L 850.39,0 0,0 0,850.39 Z"
         id="path156"
         inkscape:connector-curvature="0" /></clipPath></defs><sodipodi:namedview
     pagecolor="#ffffff"
     bordercolor="#666666"
     borderopacity="1"
     objecttolerance="10"
     gridtolerance="10"
     guidetolerance="10"
     inkscape:pageopacity="0"
     inkscape:pageshadow="2"
     inkscape:window-width="640"
     inkscape:window-height="480"
     id="namedview4"
     showgrid="false"
     inkscape:zoom="5.4583333"
     inkscape:cx="48"
     inkscape:cy="48"
     inkscape:current-layer="g10" /><g
     id="g10"
     inkscape:groupmode="layer"
     inkscape:label="byeongsinnyeon-1137035"
     transform="matrix(1.25,0,0,-1.25,0,95.999951)"><g
       transform="matrix(0.05962238,0,0,-0.05962238,2.1528469,61.796426)"
       id="layer1"
       inkscape:label="Layer 1"><circle
         r="475.19086"
         cy="552.36218"
         cx="501.58014"
         id="path8317"
         style="color:#000000;display:inline;overflow:visible;visibility:visible;opacity:1;fill:#000000;fill-opacity:1;fill-rule:nonzero;stroke:none;stroke-width:2.29900002;stroke-linejoin:miter;stroke-miterlimit:4;stroke-dasharray:none;stroke-dashoffset:0;stroke-opacity:1;marker:none;enable-background:accumulate" /><circle
         style="color:#000000;display:inline;overflow:visible;visibility:visible;opacity:1;fill:#ffffff;fill-opacity:1;fill-rule:nonzero;stroke:#ffffff;stroke-width:0.96379739;stroke-linejoin:miter;stroke-miterlimit:4;stroke-dasharray:none;stroke-dashoffset:0;stroke-opacity:1;marker:none;enable-background:accumulate"
         id="circle8306"
         cx="524"
         cy="550.36218"
         r="54.066284" /><path
         inkscape:connector-curvature="0"
         id="circle8373"
         d="M 513.8418,176.91489 A 373.65318,373.65318 0 0 0 140.18945,550.56724 373.65318,373.65318 0 0 0 513.8418,924.21958 l 0,-182.49414 A 191.87151,191.87151 0 0 1 332.12891,550.36216 191.87151,191.87151 0 0 1 513.8418,358.85044 l 0,-181.93555 z"
         style="color:#000000;display:inline;overflow:visible;visibility:visible;opacity:1;fill:#c00000;fill-opacity:1;fill-rule:nonzero;stroke:none;stroke-width:4.75142097;stroke-linejoin:miter;stroke-miterlimit:4;stroke-dasharray:none;stroke-dashoffset:0;stroke-opacity:1;marker:none;enable-background:accumulate" /><path
         inkscape:connector-curvature="0"
         id="path8382"
         d="M 514.76758,394.05161 A 156.0855,156.0855 0 0 0 358.68359,550.13755 156.0855,156.0855 0 0 0 514.76758,706.22154 l 0,-74.27149 a 82.154182,82.154182 0 0 1 -72.92188,-81.58789 82.154182,82.154182 0 0 1 72.92188,-81.5332 l 0,-74.77735 z"
         style="color:#000000;display:inline;overflow:visible;visibility:visible;opacity:1;fill:#0070c0;fill-opacity:1;fill-rule:nonzero;stroke:none;stroke-width:4.75142097;stroke-linejoin:miter;stroke-miterlimit:4;stroke-dasharray:none;stroke-dashoffset:0;stroke-opacity:1;marker:none;enable-background:accumulate" /><path
         inkscape:connector-curvature="0"
         id="path8387"
         d="m 531.56836,230.53013 0,160.87305 A 159.33853,159.33853 0 0 1 683.33789,550.36216 159.33853,159.33853 0 0 1 531.56836,709.43247 l 0,160.86719 A 319.88508,319.88508 0 0 0 851.45312,550.41489 319.88508,319.88508 0 0 0 531.56836,230.53013 Z"
         style="color:#000000;display:inline;overflow:visible;visibility:visible;opacity:1;fill:#ffc000;fill-opacity:1;fill-rule:nonzero;stroke:none;stroke-width:4.75142097;stroke-linejoin:miter;stroke-miterlimit:4;stroke-dasharray:none;stroke-dashoffset:0;stroke-opacity:1;marker:none;enable-background:accumulate" /></g><g
       id="g4305"
       transform="matrix(0.07765066,0,0,0.07765066,-1.0022988,12.920378)"><g
         id="g12"><g
           clip-path="url(#clipPath16)"
           id="g14"><g
             transform="translate(327,495.3896)"
             id="g20"><path
               inkscape:connector-curvature="0"
               id="path22"
               style="fill:#986740;fill-opacity:1;fill-rule:nonzero;stroke:none"
               d="m 0,0 c 0,0 -190,51 -110.5,216 79.5,165 396.623,90.828 451.5,14 0,0 11,-38 -23,-27 -34,11 -116.668,59 -164.334,62 C 106,268 -0.235,296.415 -72,206 -129.942,133 11,55 11,55 L 0,0 Z" /></g><g
             transform="translate(327,495.3896)"
             id="g24"><path
               inkscape:connector-curvature="0"
               id="path26"
               style="fill:none;stroke:#332d2b;stroke-width:6;stroke-linecap:butt;stroke-linejoin:miter;stroke-miterlimit:10;stroke-dasharray:none;stroke-opacity:1"
               d="m 0,0 c 0,0 -190,51 -110.5,216 79.5,165 396.623,90.828 451.5,14 0,0 11,-38 -23,-27 -34,11 -116.668,59 -164.334,62 C 106,268 -0.235,296.415 -72,206 -129.942,133 11,55 11,55 L 0,0 Z" /></g></g></g><g
         id="g28"><g
           clip-path="url(#clipPath32)"
           id="g30"><g
             transform="translate(401.6768,252.4678)"
             id="g36"><path
               inkscape:connector-curvature="0"
               id="path38"
               style="fill:#e6232a;fill-opacity:1;fill-rule:nonzero;stroke:none"
               d="m 0,0 c -6.739,-27.064 -29.145,-44.785 -50.045,-39.582 -20.901,5.204 -32.383,31.362 -25.644,58.427 6.738,27.064 29.145,44.784 50.045,39.581 C -4.742,53.222 6.738,27.063 0,0" /></g><g
             transform="translate(401.6768,252.4678)"
             id="g40"><path
               inkscape:connector-curvature="0"
               id="path42"
               style="fill:none;stroke:#332d2b;stroke-width:7;stroke-linecap:butt;stroke-linejoin:miter;stroke-miterlimit:10;stroke-dasharray:none;stroke-opacity:1"
               d="m 0,0 c -6.739,-27.064 -29.145,-44.785 -50.045,-39.582 -20.901,5.204 -32.383,31.362 -25.644,58.427 6.738,27.064 29.145,44.784 50.045,39.581 C -4.742,53.222 6.738,27.063 0,0 Z" /></g><g
             transform="translate(351.6313,212.8857)"
             id="g44"><path
               inkscape:connector-curvature="0"
               id="path46"
               style="fill:none;stroke:#332d2b;stroke-width:7;stroke-linecap:butt;stroke-linejoin:miter;stroke-miterlimit:10;stroke-dasharray:none;stroke-opacity:1"
               d="M 0,0 12.201,49.004" /></g><g
             transform="translate(216.5,461.3896)"
             id="g48"><path
               inkscape:connector-curvature="0"
               id="path50"
               style="fill:#986740;fill-opacity:1;fill-rule:nonzero;stroke:none"
               d="m 0,0 c 0,-46.944 -38.056,-85 -85,-85 -46.944,0 -85,38.056 -85,85 0,46.944 38.056,85 85,85 C -38.056,85 0,46.944 0,0" /></g><g
             transform="translate(216.5,461.3896)"
             id="g52"><path
               inkscape:connector-curvature="0"
               id="path54"
               style="fill:none;stroke:#332d2b;stroke-width:7;stroke-linecap:butt;stroke-linejoin:miter;stroke-miterlimit:10;stroke-dasharray:none;stroke-opacity:1"
               d="m 0,0 c 0,-46.944 -38.056,-85 -85,-85 -46.944,0 -85,38.056 -85,85 0,46.944 38.056,85 85,85 C -38.056,85 0,46.944 0,0 Z" /></g><g
             transform="translate(193.0645,453.6719)"
             id="g56"><path
               inkscape:connector-curvature="0"
               id="path58"
               style="fill:#f8dcae;fill-opacity:1;fill-rule:nonzero;stroke:none"
               d="m 0,0 c 0,-39.921 -32.362,-72.282 -72.282,-72.282 -39.921,0 -72.282,32.361 -72.282,72.282 0,39.92 32.361,72.282 72.282,72.282 C -32.362,72.282 0,39.92 0,0" /></g><g
             transform="translate(193.0645,453.6719)"
             id="g60"><path
               inkscape:connector-curvature="0"
               id="path62"
               style="fill:none;stroke:#332d2b;stroke-width:7;stroke-linecap:butt;stroke-linejoin:miter;stroke-miterlimit:10;stroke-dasharray:none;stroke-opacity:1"
               d="m 0,0 c 0,-39.921 -32.362,-72.282 -72.282,-72.282 -39.921,0 -72.282,32.361 -72.282,72.282 0,39.92 32.361,72.282 72.282,72.282 C -32.362,72.282 0,39.92 0,0 Z" /></g><g
             transform="translate(633.9971,461.3896)"
             id="g64"><path
               inkscape:connector-curvature="0"
               id="path66"
               style="fill:#986740;fill-opacity:1;fill-rule:nonzero;stroke:none"
               d="m 0,0 c 0,-46.944 38.056,-85 85,-85 46.944,0 85,38.056 85,85 0,46.944 -38.056,85 -85,85 C 38.056,85 0,46.944 0,0" /></g><g
             transform="translate(633.9971,461.3896)"
             id="g68"><path
               inkscape:connector-curvature="0"
               id="path70"
               style="fill:none;stroke:#332d2b;stroke-width:7;stroke-linecap:butt;stroke-linejoin:miter;stroke-miterlimit:10;stroke-dasharray:none;stroke-opacity:1"
               d="m 0,0 c 0,-46.944 38.056,-85 85,-85 46.944,0 85,38.056 85,85 0,46.944 -38.056,85 -85,85 C 38.056,85 0,46.944 0,0 Z" /></g><g
             transform="translate(657.4326,453.6719)"
             id="g72"><path
               inkscape:connector-curvature="0"
               id="path74"
               style="fill:#f8dcae;fill-opacity:1;fill-rule:nonzero;stroke:none"
               d="m 0,0 c 0,-39.921 32.362,-72.282 72.282,-72.282 39.92,0 72.282,32.361 72.282,72.282 0,39.92 -32.362,72.282 -72.282,72.282 C 32.362,72.282 0,39.92 0,0" /></g><g
             transform="translate(657.4326,453.6719)"
             id="g76"><path
               inkscape:connector-curvature="0"
               id="path78"
               style="fill:none;stroke:#332d2b;stroke-width:7;stroke-linecap:butt;stroke-linejoin:miter;stroke-miterlimit:10;stroke-dasharray:none;stroke-opacity:1"
               d="m 0,0 c 0,-39.921 32.362,-72.282 72.282,-72.282 39.92,0 72.282,32.361 72.282,72.282 0,39.92 -32.362,72.282 -72.282,72.282 C 32.362,72.282 0,39.92 0,0 Z" /></g><g
             transform="translate(651.5,425.3896)"
             id="g80"><path
               inkscape:connector-curvature="0"
               id="path82"
               style="fill:#986740;fill-opacity:1;fill-rule:nonzero;stroke:none"
               d="m 0,0 c 0,-125.093 -101.407,-168.5 -226.5,-168.5 -125.092,0 -226.5,43.407 -226.5,168.5 0,125.092 101.408,226.5 226.5,226.5 C -101.407,226.5 0,125.092 0,0" /></g><g
             transform="translate(651.5,425.3896)"
             id="g84"><path
               inkscape:connector-curvature="0"
               id="path86"
               style="fill:none;stroke:#332d2b;stroke-width:6;stroke-linecap:butt;stroke-linejoin:miter;stroke-miterlimit:10;stroke-dasharray:none;stroke-opacity:1"
               d="m 0,0 c 0,-125.093 -101.407,-168.5 -226.5,-168.5 -125.092,0 -226.5,43.407 -226.5,168.5 0,125.092 101.408,226.5 226.5,226.5 C -101.407,226.5 0,125.092 0,0 Z" /></g><g
             transform="translate(600.5029,388.0537)"
             id="g88"><path
               inkscape:connector-curvature="0"
               id="path90"
               style="fill:#f8dcae;fill-opacity:1;fill-rule:nonzero;stroke:none"
               d="m 0,0 c 0,-97.375 -78.938,-131.164 -176.312,-131.164 -97.375,0 -176.313,33.789 -176.313,131.164 0,97.375 78.938,176.312 176.313,176.312 C -78.938,176.312 0,97.375 0,0" /></g><g
             transform="translate(600.5029,388.0537)"
             id="g92"><path
               inkscape:connector-curvature="0"
               id="path94"
               style="fill:none;stroke:#332d2b;stroke-width:6;stroke-linecap:butt;stroke-linejoin:miter;stroke-miterlimit:10;stroke-dasharray:none;stroke-opacity:1"
               d="m 0,0 c 0,-97.375 -78.938,-131.164 -176.312,-131.164 -97.375,0 -176.313,33.789 -176.313,131.164 0,97.375 78.938,176.312 176.313,176.312 C -78.938,176.312 0,97.375 0,0 Z" /></g><g
             transform="translate(303.333,447.3896)"
             id="g96"><path
               inkscape:connector-curvature="0"
               id="path98"
               style="fill:none;stroke:#332d2b;stroke-width:7;stroke-linecap:butt;stroke-linejoin:miter;stroke-miterlimit:10;stroke-dasharray:none;stroke-opacity:1"
               d="M 0,0 C 0,19.146 15.521,34.667 34.667,34.667 53.813,34.667 69.334,19.146 69.334,0" /></g><g
             transform="translate(465.334,447.3896)"
             id="g100"><path
               inkscape:connector-curvature="0"
               id="path102"
               style="fill:none;stroke:#332d2b;stroke-width:7;stroke-linecap:butt;stroke-linejoin:miter;stroke-miterlimit:10;stroke-dasharray:none;stroke-opacity:1"
               d="M 0,0 C 0,19.146 15.521,34.667 34.666,34.667 53.813,34.667 69.334,19.146 69.334,0" /></g><g
             transform="translate(372.667,373.3896)"
             id="g104"><path
               inkscape:connector-curvature="0"
               id="path106"
               style="fill:#332d2b;fill-opacity:1;fill-rule:nonzero;stroke:none"
               d="m 0,0 c 0,-19.146 -15.521,-34.667 -34.667,-34.667 -19.146,0 -34.667,15.521 -34.667,34.667 0,19.146 15.521,34.667 34.667,34.667 C -15.521,34.667 0,19.146 0,0" /></g><g
             transform="translate(335.334,366.3896)"
             id="g108"><path
               inkscape:connector-curvature="0"
               id="path110"
               style="fill:#ffffff;fill-opacity:1;fill-rule:nonzero;stroke:none"
               d="m 0,0 c 0,-4.603 -3.731,-8.334 -8.334,-8.334 -4.603,0 -8.334,3.731 -8.334,8.334 0,4.603 3.731,8.334 8.334,8.334 C -3.731,8.334 0,4.603 0,0" /></g><g
             transform="translate(335.334,366.3896)"
             id="g112"><path
               inkscape:connector-curvature="0"
               id="path114"
               style="fill:none;stroke:#332d2b;stroke-width:1;stroke-linecap:butt;stroke-linejoin:miter;stroke-miterlimit:10;stroke-dasharray:none;stroke-opacity:1"
               d="m 0,0 c 0,-4.603 -3.731,-8.334 -8.334,-8.334 -4.603,0 -8.334,3.731 -8.334,8.334 0,4.603 3.731,8.334 8.334,8.334 C -3.731,8.334 0,4.603 0,0 Z" /></g><g
             transform="translate(534.668,373.3896)"
             id="g116"><path
               inkscape:connector-curvature="0"
               id="path118"
               style="fill:#332d2b;fill-opacity:1;fill-rule:nonzero;stroke:none"
               d="m 0,0 c 0,-19.146 -15.521,-34.667 -34.668,-34.667 -19.145,0 -34.666,15.521 -34.666,34.667 0,19.146 15.521,34.667 34.666,34.667 C -15.521,34.667 0,19.146 0,0" /></g><g
             transform="translate(497.334,366.3896)"
             id="g120"><path
               inkscape:connector-curvature="0"
               id="path122"
               style="fill:#ffffff;fill-opacity:1;fill-rule:nonzero;stroke:none"
               d="m 0,0 c 0,-4.603 -3.73,-8.334 -8.334,-8.334 -4.602,0 -8.334,3.731 -8.334,8.334 0,4.603 3.732,8.334 8.334,8.334 C -3.73,8.334 0,4.603 0,0" /></g><g
             transform="translate(497.334,366.3896)"
             id="g124"><path
               inkscape:connector-curvature="0"
               id="path126"
               style="fill:none;stroke:#332d2b;stroke-width:1;stroke-linecap:butt;stroke-linejoin:miter;stroke-miterlimit:10;stroke-dasharray:none;stroke-opacity:1"
               d="m 0,0 c 0,-4.603 -3.73,-8.334 -8.334,-8.334 -4.602,0 -8.334,3.731 -8.334,8.334 0,4.603 3.732,8.334 8.334,8.334 C -3.73,8.334 0,4.603 0,0 Z" /></g><path
             inkscape:connector-curvature="0"
             id="path128"
             style="fill:#332d2b;fill-opacity:1;fill-rule:nonzero;stroke:none"
             d="m 426,333.056 -2.667,0 0,-76.158 2.667,0 0,76.158 z" /><g
             transform="translate(424.666,333.0557)"
             id="g130"><path
               inkscape:connector-curvature="0"
               id="path132"
               style="fill:#332d2b;fill-opacity:1;fill-rule:nonzero;stroke:none"
               d="m 0,0 c 0,0 -14.666,11.332 -35.833,0 0,0 19.999,5.666 35.833,0" /></g><g
             transform="translate(460.499,333.0557)"
             id="g134"><path
               inkscape:connector-curvature="0"
               id="path136"
               style="fill:#332d2b;fill-opacity:1;fill-rule:nonzero;stroke:none"
               d="m 0,0 c 0,0 -14.666,11.332 -35.833,0 0,0 19.999,5.666 35.833,0" /></g><g
             transform="translate(370,326.3896)"
             id="g138"><path
               inkscape:connector-curvature="0"
               id="path140"
               style="fill:#e50182;fill-opacity:1;fill-rule:nonzero;stroke:none"
               d="m 0,0 c 0,-2.762 -14.327,-5 -32,-5 -17.673,0 -32,2.238 -32,5 0,2.762 14.327,5 32,5 C -14.327,5 0,2.762 0,0" /></g><g
             transform="translate(532.001,326.3896)"
             id="g142"><path
               inkscape:connector-curvature="0"
               id="path144"
               style="fill:#e50182;fill-opacity:1;fill-rule:nonzero;stroke:none"
               d="m 0,0 c 0,-2.762 -14.327,-5 -32,-5 -17.673,0 -32,2.238 -32,5 0,2.762 14.327,5 32,5 C -14.327,5 0,2.762 0,0" /></g><g
             transform="translate(390.4019,564.0776)"
             id="g146"><path
               inkscape:connector-curvature="0"
               id="path148"
               style="fill:#986740;fill-opacity:1;fill-rule:nonzero;stroke:#332d2b;stroke-width:6;stroke-linecap:butt;stroke-linejoin:miter;stroke-miterlimit:10;stroke-dasharray:none;stroke-opacity:1"
               d="m 0,0 c 0,0 29.81,-5.021 18.204,-47.021 0,0 10.394,19.333 8.394,43.333 0,0 24,-13.333 16.667,-36.666 0,0 20,36 10,52" /></g></g></g><g
         id="g150"><g
           clip-path="url(#clipPath154)"
           id="g152"><g
             transform="translate(420.5508,639.1538)"
             id="g158"><path
               inkscape:connector-curvature="0"
               id="path160"
               style="fill:#986740;fill-opacity:1;fill-rule:nonzero;stroke:#332d2b;stroke-width:6;stroke-linecap:butt;stroke-linejoin:miter;stroke-miterlimit:10;stroke-dasharray:none;stroke-opacity:1"
               d="m 0,0 c 0,0 24.877,50.6 81.47,36.669 0,0 -35.265,-3.863 -37.158,-17.943 0,0 36.719,10.369 58.445,-4.035 0,0 -30.636,1.521 -42.068,-18.88" /></g></g></g></g></g></svg>