<?xml version="1.0" encoding="UTF-8" standalone="no"?>
<!-- Created with Inkscape (http://www.inkscape.org/) -->

<svg
   xmlns:dc="http://purl.org/dc/elements/1.1/"
   xmlns:cc="http://creativecommons.org/ns#"
   xmlns:rdf="http://www.w3.org/1999/02/22-rdf-syntax-ns#"
   xmlns:svg="http://www.w3.org/2000/svg"
   xmlns="http://www.w3.org/2000/svg"
   xmlns:xlink="http://www.w3.org/1999/xlink"
   xmlns:sodipodi="http://sodipodi.sourceforge.net/DTD/sodipodi-0.dtd"
   xmlns:inkscape="http://www.inkscape.org/namespaces/inkscape"
   width="500"
   height="500"
   id="svg2"
   version="1.1"
   inkscape:version="0.48.4 r9939"
   sodipodi:docname="新建文档 1">
  <defs
     id="defs4">
    <radialGradient
       gradientTransform="matrix(-3.6176843,0,0,-1.8739726,1767.0579,306.4135)"
       gradientUnits="userSpaceOnUse"
       xlink:href="#linearGradient3262"
       id="radialGradient3241"
       fy="70.85936"
       fx="382.67188"
       r="240.95312"
       cy="70.85936"
       cx="382.67188" />
    <linearGradient
       gradientTransform="translate(-107.71654,-138.10119)"
       gradientUnits="userSpaceOnUse"
       xlink:href="#linearGradient3262"
       id="linearGradient3706"
       y2="706.513"
       x2="580.92993"
       y1="653.38116"
       x1="580.92993" />
    <linearGradient
       gradientTransform="translate(-107.71654,-138.10119)"
       gradientUnits="userSpaceOnUse"
       xlink:href="#linearGradient3509"
       id="linearGradient3704"
       y2="701.6875"
       x2="186.59787"
       y1="653.09375"
       x1="186.59787" />
    <linearGradient
       gradientTransform="translate(-107.71654,-138.10119)"
       gradientUnits="userSpaceOnUse"
       xlink:href="#linearGradient3509"
       id="linearGradient3702"
       y2="748.35437"
       x2="546.1084"
       y1="690.3689"
       x1="543.8891" />
    <linearGradient
       gradientTransform="translate(-107.71654,-138.10119)"
       gradientUnits="userSpaceOnUse"
       xlink:href="#linearGradient3509"
       id="linearGradient3700"
       y2="742.41943"
       x2="221.63947"
       y1="690.28125"
       x1="221.06584" />
    <linearGradient
       gradientTransform="translate(-107.71654,-138.10119)"
       gradientUnits="userSpaceOnUse"
       xlink:href="#linearGradient3509"
       id="linearGradient3698"
       y2="773.81586"
       x2="504.24789"
       y1="722.67517"
       x1="498.71881" />
    <linearGradient
       gradientTransform="translate(-107.71654,-138.10119)"
       gradientUnits="userSpaceOnUse"
       xlink:href="#linearGradient3509"
       id="linearGradient3696"
       y2="775.99207"
       x2="262.10007"
       y1="719.53125"
       x1="263.92017" />
    <linearGradient
       gradientTransform="translate(-107.71654,-138.10119)"
       gradientUnits="userSpaceOnUse"
       xlink:href="#linearGradient3509"
       id="linearGradient3694"
       y2="781.1015"
       x2="318.11243"
       y1="739.15625"
       x1="315.32422" />
    <linearGradient
       gradientTransform="translate(-107.71654,-138.10119)"
       gradientUnits="userSpaceOnUse"
       xlink:href="#linearGradient3509"
       id="linearGradient3692"
       y2="770.08527"
       x2="439.75153"
       y1="743.75"
       x1="433.34247" />
    <linearGradient
       gradientTransform="translate(-107.71654,-138.10119)"
       gradientUnits="userSpaceOnUse"
       xlink:href="#linearGradient3509"
       id="linearGradient3690"
       y2="779.81976"
       x2="382.35052"
       y1="749.875"
       x1="382.35052" />
    <linearGradient
       gradientTransform="translate(-107.71654,-138.10119)"
       gradientUnits="userSpaceOnUse"
       xlink:href="#linearGradient3509"
       id="linearGradient3658"
       y2="319.74561"
       x2="558.26556"
       y1="291.875"
       x1="609.40625" />
    <linearGradient
       gradientTransform="translate(-107.71654,-138.10119)"
       gradientUnits="userSpaceOnUse"
       xlink:href="#linearGradient3509"
       id="linearGradient3650"
       y2="285.78125"
       x2="514.25"
       y1="249.84375"
       x1="560.27661" />
    <linearGradient
       gradientTransform="translate(-107.71654,-138.10119)"
       gradientUnits="userSpaceOnUse"
       xlink:href="#linearGradient3509"
       id="linearGradient3640"
       y2="264.98077"
       x2="475.69058"
       y1="218.1875"
       x1="506.375" />
    <linearGradient
       gradientTransform="translate(-107.71654,-138.10119)"
       gradientUnits="userSpaceOnUse"
       xlink:href="#linearGradient3509"
       id="linearGradient3630"
       y2="315.24637"
       x2="210.60495"
       y1="291.5267"
       x1="154.62117" />
    <linearGradient
       gradientTransform="translate(-107.71654,-138.10119)"
       gradientUnits="userSpaceOnUse"
       xlink:href="#linearGradient3509"
       id="linearGradient3612"
       y2="286.28125"
       x2="245.95103"
       y1="249.44212"
       x1="202.37982" />
    <linearGradient
       gradientTransform="translate(-107.71654,-138.10119)"
       gradientUnits="userSpaceOnUse"
       xlink:href="#linearGradient3509"
       id="linearGradient3604"
       y2="240.82478"
       x2="300.71875"
       y1="240.82478"
       x1="257.7309" />
    <linearGradient
       gradientTransform="translate(-107.71654,-138.10119)"
       gradientUnits="userSpaceOnUse"
       xlink:href="#linearGradient3509"
       id="linearGradient3590"
       y2="255.81599"
       x2="438.59241"
       y1="198.44858"
       x1="445.7951" />
    <linearGradient
       gradientTransform="translate(-107.71654,-138.10119)"
       gradientUnits="userSpaceOnUse"
       xlink:href="#linearGradient3509"
       id="linearGradient3582"
       y2="255.63063"
       x2="318.86661"
       y1="198.74815"
       x1="318.69376" />
    <linearGradient
       gradientTransform="translate(-107.71654,-138.10119)"
       gradientUnits="userSpaceOnUse"
       xlink:href="#linearGradient3509"
       id="linearGradient3574"
       y2="247.90936"
       x2="383.04688"
       y1="191.93869"
       x1="381.34219" />
    <linearGradient
       gradientTransform="translate(-107.71654,-138.10119)"
       gradientUnits="userSpaceOnUse"
       xlink:href="#linearGradient3509"
       id="linearGradient3566"
       y2="694.03125"
       x2="499.21875"
       y1="648.46875"
       x1="472.21875" />
    <linearGradient
       gradientTransform="translate(-107.71654,-138.10119)"
       gradientUnits="userSpaceOnUse"
       xlink:href="#linearGradient3509"
       id="linearGradient3558"
       y2="457.54633"
       x2="232.28918"
       y1="670.63263"
       x1="419.64124" />
    <radialGradient
       gradientTransform="matrix(0.5349323,-0.8448949,1,0.6331347,-422.55705,510.46742)"
       gradientUnits="userSpaceOnUse"
       xlink:href="#linearGradient3509"
       id="radialGradient3550"
       fy="558.96472"
       fx="524.92188"
       r="17.515625"
       cy="558.96472"
       cx="524.92188" />
    <linearGradient
       gradientTransform="translate(-107.71654,-138.10119)"
       gradientUnits="userSpaceOnUse"
       xlink:href="#linearGradient3509"
       id="linearGradient3542"
       y2="542.24011"
       x2="386.75247"
       y1="362.86322"
       x1="386.75247" />
    <linearGradient
       gradientTransform="translate(-107.71654,-138.10119)"
       gradientUnits="userSpaceOnUse"
       xlink:href="#linearGradient3509"
       id="linearGradient3532"
       y2="557.28046"
       x2="382.54953"
       y1="280.10577"
       x1="382.54953" />
    <filter
       id="filter3366"
       color-interpolation-filters="sRGB">
      <feGaussianBlur
         stdDeviation="14.173227"
         id="feGaussianBlur3368" />
    </filter>
    <clipPath
       id="clipPath3311">
      <path
         style="font-size:12px;fill:#000000;fill-opacity:1;fill-rule:evenodd;stroke:none"
         id="path3313"
         d="m 381.9375,173.625 c -4.21332,42.13349 -10.03577,69.83124 -25.84375,78.53125 -17.27681,-5.22916 -28.69236,-31.13179 -41.53125,-71.5 4.55458,41.77797 4.61095,69.96794 -8.75,81.90625 -17.78835,-1.97776 -34.12725,-24.95431 -54.71875,-61.53125 13.0555,40.28403 18.83303,67.99943 7.84375,82.3125 -17.92384,2.14967 -38.78383,-16.95958 -66.75,-48.78125 21.06376,36.64714 32.42682,62.49985 24.71875,78.78125 -17.09049,5.60535 -41.41105,-8.8058 -75.1875,-34.09375 29.644,33.20511 46.34805,56.93535 39.59375,74.78125 10.6708,-14.25291 11.8868,-15.56615 17.875,-22.09375 5.58938,-6.09263 7.37985,-7.9614 18.34375,-17.78125 11.25046,-9.85812 13.26854,-11.37709 20.03125,-16.21875 6.9067,-4.94451 8.83177,-6.27851 22.5625,-14.1875 12.33451,-6.91037 14.78922,-8.04241 22.25,-11.3125 7.67774,-3.365 9.96838,-4.30144 24.5,-9.03125 13.208,-4.16737 15.8721,-4.79736 23.78125,-6.46875 8.26034,-1.7456 10.635,-2.20061 26.125,-3.90625 14.30407,-1.40317 16.96055,-1.46875 25.15625,-1.46875 8.85831,0 10.62725,0.01 28.34375,1.78125 13.10212,1.46659 15.92269,1.98412 23.6875,3.625 8.06288,1.70388 10.58999,2.32122 24.5,6.71875 13.79956,4.49943 16.24747,5.47934 23.78125,8.78125 7.46078,3.27009 9.91548,4.40213 22.25,11.3125 13.73073,7.90899 15.6558,9.24299 22.5625,14.1875 6.76271,4.84166 8.78078,6.36063 20.03125,16.21875 10.96381,9.82023 12.75437,11.68862 18.34375,17.78125 5.9882,6.5276 7.20417,7.84084 17.875,22.09375 -6.7543,-17.8459 9.94974,-41.57614 39.59375,-74.78125 -33.81975,25.32037 -58.12733,39.7259 -75.21875,34.0625 -7.65797,-16.28458 3.70927,-42.1429 24.75,-78.75 -27.95029,31.80361 -48.80176,50.9368 -66.71875,48.8125 -11.02566,-14.30287 -5.25367,-41.9956 7.8125,-82.3125 -20.60326,36.59783 -36.94985,59.54509 -54.75,61.5 -13.32788,-11.95522 -13.26959,-40.13141 -8.71875,-81.875 -12.94605,40.70516 -24.44869,66.66946 -41.96875,71.59375 -16.04038,-8.50889 -21.91562,-36.28182 -26.15625,-78.6875 z m 2.875,99.96875 c -1.37635,-0.005 -2.74998,0.0116 -4.125,0.0312 -73.3345,1.04709 -144.47788,37.47275 -186.65625,100.09375 -64.58021,97.0834 -49.12115,239.6031 62.40625,315.125 97.5272,64.4282 188.99395,36.13015 245.03125,5.03125 l -28,-48 c -60.39979,31.845 -131.1568,35.6623 -185.6875,-1.4375 -83.8576,-55.5432 -100.3532,-164.68105 -48.6875,-241.09375 50.833,-76.6977 156.02335,-100.0685 239.21875,-45.125 87.58159,59.3819 82.48805,162.54275 60.78125,208.71875 -9.5889,-6.5965 -19.19235,-13.18475 -28.78125,-19.78125 24.9959,-64.76217 -0.4447,-128.6783 -50.5,-162.1875 C 400.92381,345.54616 315.4392,352.2459 267.625,423.5 c -9.3484,14.13429 -9.36225,14.1554 -14.53125,28.0625 l 298.09375,199 c 12.3337,-12.84288 12.33425,-12.8473 20.21875,-24.625 67.0184,-100.11068 43.6842,-243.6293 -62.125,-314 -38.5768,-25.99295 -81.80179,-38.17927 -124.46875,-38.34375 z m 199.21875,371.5625 C 573.36046,659.40917 572.1757,660.7224 566.1875,667.25 c -5.67597,6.18706 -7.37489,7.95144 -18.8125,18.1875 -10.78937,9.44575 -12.93545,11.04559 -19.59375,15.8125 -6.50994,4.6605 -8.81667,6.24434 -20.5,13 -14.45549,8.12762 -16.40361,9.00226 -24.3125,12.46875 -7.53219,3.30119 -9.95847,4.31559 -23.75,8.8125 -13.91784,4.40011 -16.46669,5.01452 -24.53125,6.71875 -7.85097,1.6591 -10.59954,2.15064 -24.09375,3.65625 -17.21414,1.71782 -19.13867,1.71873 -27.90625,1.71875 -8.3454,0 -10.85061,-0.0498 -25.875,-1.53125 -14.78143,-1.63437 -17.28607,-2.09654 -25.40625,-3.8125 -8.06456,-1.70423 -10.6134,-2.31866 -24.53125,-6.71875 -13.79154,-4.49691 -16.21783,-5.48003 -23.75,-8.78125 -7.61208,-3.3364 -9.91741,-4.41451 -22.9375,-11.71875 -13.0274,-7.51241 -15.13014,-8.93022 -21.90625,-13.78125 -6.76271,-4.84166 -8.78078,-6.36064 -20.03125,-16.21875 -10.96381,-9.82023 -12.75438,-11.68864 -18.34375,-17.78125 -5.9882,-6.5276 -7.17295,-7.84086 -17.84375,-22.09375 6.7543,17.8459 -9.94976,41.57613 -39.59375,74.78125 33.79501,-25.30185 58.09802,-39.72364 75.1875,-34.09375 7.68616,16.2828 -3.69629,42.15158 -24.75,78.78125 27.97352,-31.83003 48.85426,-50.9427 66.78125,-48.78125 10.98226,14.31504 5.17844,42.03478 -7.875,82.3125 20.60326,-36.59783 36.94985,-59.57633 54.75,-61.53125 13.32788,11.95522 13.26959,40.16269 8.71875,81.90625 12.83495,-40.35584 24.26333,-66.25976 41.53125,-71.5 15.8262,8.68509 21.65955,36.37632 25.875,78.53125 4.24063,-42.40568 10.11585,-70.1786 26.15625,-78.6875 17.51525,4.93035 29.02481,30.89523 41.96875,71.59375 -4.55046,-41.74012 -4.63704,-69.91807 8.6875,-81.875 17.8025,1.95036 34.14441,24.89803 54.75,61.5 -13.06398,-40.31026 -18.83081,-68.00757 -7.8125,-82.3125 17.92005,-2.1356 38.76138,17.00084 66.71875,48.8125 -21.04075,-36.6071 -32.40797,-62.46542 -24.75,-78.75 17.09141,-5.66339 41.399,8.74213 75.21875,34.0625 -29.64397,-33.20509 -46.34805,-56.93535 -39.59375,-74.78125 z"
         inkscape:connector-curvature="0" />
    </clipPath>
    <clipPath
       id="clipPath3307">
      <path
         style="font-size:12px;fill:#000000;fill-opacity:1;fill-rule:evenodd;stroke:none"
         id="path3309"
         d="m 381.9375,173.625 c -4.21332,42.13349 -10.03577,69.83124 -25.84375,78.53125 -17.27681,-5.22916 -28.69236,-31.13179 -41.53125,-71.5 4.55458,41.77797 4.61095,69.96794 -8.75,81.90625 -17.78835,-1.97776 -34.12725,-24.95431 -54.71875,-61.53125 13.0555,40.28403 18.83303,67.99943 7.84375,82.3125 -17.92384,2.14967 -38.78383,-16.95958 -66.75,-48.78125 21.06376,36.64714 32.42682,62.49985 24.71875,78.78125 -17.09049,5.60535 -41.41105,-8.8058 -75.1875,-34.09375 29.644,33.20511 46.34805,56.93535 39.59375,74.78125 10.6708,-14.25291 11.8868,-15.56615 17.875,-22.09375 5.58938,-6.09263 7.37985,-7.9614 18.34375,-17.78125 11.25046,-9.85812 13.26854,-11.37709 20.03125,-16.21875 6.9067,-4.94451 8.83177,-6.27851 22.5625,-14.1875 12.33451,-6.91037 14.78922,-8.04241 22.25,-11.3125 7.67774,-3.365 9.96838,-4.30144 24.5,-9.03125 13.208,-4.16737 15.8721,-4.79736 23.78125,-6.46875 8.26034,-1.7456 10.635,-2.20061 26.125,-3.90625 14.30407,-1.40317 16.96055,-1.46875 25.15625,-1.46875 8.85831,0 10.62725,0.01 28.34375,1.78125 13.10212,1.46659 15.92269,1.98412 23.6875,3.625 8.06288,1.70388 10.58999,2.32122 24.5,6.71875 13.79956,4.49943 16.24747,5.47934 23.78125,8.78125 7.46078,3.27009 9.91548,4.40213 22.25,11.3125 13.73073,7.90899 15.6558,9.24299 22.5625,14.1875 6.76271,4.84166 8.78078,6.36063 20.03125,16.21875 10.96381,9.82023 12.75437,11.68862 18.34375,17.78125 5.9882,6.5276 7.20417,7.84084 17.875,22.09375 -6.7543,-17.8459 9.94974,-41.57614 39.59375,-74.78125 -33.81975,25.32037 -58.12733,39.7259 -75.21875,34.0625 -7.65797,-16.28458 3.70927,-42.1429 24.75,-78.75 -27.95029,31.80361 -48.80176,50.9368 -66.71875,48.8125 -11.02566,-14.30287 -5.25367,-41.9956 7.8125,-82.3125 -20.60326,36.59783 -36.94985,59.54509 -54.75,61.5 -13.32788,-11.95522 -13.26959,-40.13141 -8.71875,-81.875 -12.94605,40.70516 -24.44869,66.66946 -41.96875,71.59375 -16.04038,-8.50889 -21.91562,-36.28182 -26.15625,-78.6875 z m 2.875,99.96875 c -1.37635,-0.005 -2.74998,0.0116 -4.125,0.0312 -73.3345,1.04709 -144.47788,37.47275 -186.65625,100.09375 -64.58021,97.0834 -49.12115,239.6031 62.40625,315.125 97.5272,64.4282 188.99395,36.13015 245.03125,5.03125 l -28,-48 c -60.39979,31.845 -131.1568,35.6623 -185.6875,-1.4375 -83.8576,-55.5432 -100.3532,-164.68105 -48.6875,-241.09375 50.833,-76.6977 156.02335,-100.0685 239.21875,-45.125 87.58159,59.3819 82.48805,162.54275 60.78125,208.71875 -9.5889,-6.5965 -19.19235,-13.18475 -28.78125,-19.78125 24.9959,-64.76217 -0.4447,-128.6783 -50.5,-162.1875 C 400.92381,345.54616 315.4392,352.2459 267.625,423.5 c -9.3484,14.13429 -9.36225,14.1554 -14.53125,28.0625 l 298.09375,199 c 12.3337,-12.84288 12.33425,-12.8473 20.21875,-24.625 67.0184,-100.11068 43.6842,-243.6293 -62.125,-314 -38.5768,-25.99295 -81.80179,-38.17927 -124.46875,-38.34375 z m 199.21875,371.5625 C 573.36046,659.40917 572.1757,660.7224 566.1875,667.25 c -5.67597,6.18706 -7.37489,7.95144 -18.8125,18.1875 -10.78937,9.44575 -12.93545,11.04559 -19.59375,15.8125 -6.50994,4.6605 -8.81667,6.24434 -20.5,13 -14.45549,8.12762 -16.40361,9.00226 -24.3125,12.46875 -7.53219,3.30119 -9.95847,4.31559 -23.75,8.8125 -13.91784,4.40011 -16.46669,5.01452 -24.53125,6.71875 -7.85097,1.6591 -10.59954,2.15064 -24.09375,3.65625 -17.21414,1.71782 -19.13867,1.71873 -27.90625,1.71875 -8.3454,0 -10.85061,-0.0498 -25.875,-1.53125 -14.78143,-1.63437 -17.28607,-2.09654 -25.40625,-3.8125 -8.06456,-1.70423 -10.6134,-2.31866 -24.53125,-6.71875 -13.79154,-4.49691 -16.21783,-5.48003 -23.75,-8.78125 -7.61208,-3.3364 -9.91741,-4.41451 -22.9375,-11.71875 -13.0274,-7.51241 -15.13014,-8.93022 -21.90625,-13.78125 -6.76271,-4.84166 -8.78078,-6.36064 -20.03125,-16.21875 -10.96381,-9.82023 -12.75438,-11.68864 -18.34375,-17.78125 -5.9882,-6.5276 -7.17295,-7.84086 -17.84375,-22.09375 6.7543,17.8459 -9.94976,41.57613 -39.59375,74.78125 33.79501,-25.30185 58.09802,-39.72364 75.1875,-34.09375 7.68616,16.2828 -3.69629,42.15158 -24.75,78.78125 27.97352,-31.83003 48.85426,-50.9427 66.78125,-48.78125 10.98226,14.31504 5.17844,42.03478 -7.875,82.3125 20.60326,-36.59783 36.94985,-59.57633 54.75,-61.53125 13.32788,11.95522 13.26959,40.16269 8.71875,81.90625 12.83495,-40.35584 24.26333,-66.25976 41.53125,-71.5 15.8262,8.68509 21.65955,36.37632 25.875,78.53125 4.24063,-42.40568 10.11585,-70.1786 26.15625,-78.6875 17.51525,4.93035 29.02481,30.89523 41.96875,71.59375 -4.55046,-41.74012 -4.63704,-69.91807 8.6875,-81.875 17.8025,1.95036 34.14441,24.89803 54.75,61.5 -13.06398,-40.31026 -18.83081,-68.00757 -7.8125,-82.3125 17.92005,-2.1356 38.76138,17.00084 66.71875,48.8125 -21.04075,-36.6071 -32.40797,-62.46542 -24.75,-78.75 17.09141,-5.66339 41.399,8.74213 75.21875,34.0625 -29.64397,-33.20509 -46.34805,-56.93535 -39.59375,-74.78125 z"
         inkscape:connector-curvature="0" />
    </clipPath>
    <linearGradient
       id="linearGradient3262">
      <stop
         offset="0"
         style="stop-color:#ffffff;stop-opacity:1"
         id="stop3264" />
      <stop
         offset="0.15000001"
         style="stop-color:#ffffff;stop-opacity:0.74901962"
         id="stop3274" />
      <stop
         offset="0.34999999"
         style="stop-color:#ffffff;stop-opacity:0.49803922"
         id="stop3270" />
      <stop
         offset="0.60000002"
         style="stop-color:#ffffff;stop-opacity:0.24705882"
         id="stop3272" />
      <stop
         offset="1"
         style="stop-color:#ffffff;stop-opacity:0"
         id="stop3266" />
    </linearGradient>
    <linearGradient
       id="linearGradient3509">
      <stop
         offset="0"
         style="stop-color:#ffffff;stop-opacity:1"
         id="stop3511" />
      <stop
         offset="1"
         style="stop-color:#ffffff;stop-opacity:0"
         id="stop3513" />
    </linearGradient>
  </defs>
  <sodipodi:namedview
     id="base"
     pagecolor="#ffffff"
     bordercolor="#666666"
     borderopacity="1.0"
     inkscape:pageopacity="0.0"
     inkscape:pageshadow="2"
     inkscape:zoom="1.144"
     inkscape:cx="250"
     inkscape:cy="250"
     inkscape:document-units="px"
     inkscape:current-layer="g3113"
     showgrid="false"
     inkscape:window-width="1320"
     inkscape:window-height="745"
     inkscape:window-x="0"
     inkscape:window-y="-2"
     inkscape:window-maximized="1" />
  <metadata
     id="metadata7">
    <rdf:RDF>
      <cc:Work
         rdf:about="">
        <dc:format>image/svg+xml</dc:format>
        <dc:type
           rdf:resource="http://purl.org/dc/dcmitype/StillImage" />
        <dc:title></dc:title>
      </cc:Work>
    </rdf:RDF>
  </metadata>
  <g
     inkscape:label="Layer 1"
     inkscape:groupmode="layer"
     id="layer1"
     transform="translate(0,-552.36218)">
    <g
       id="g3113"
       transform="matrix(0.5718587,0,0,0.5718587,89.244868,567.33162)">
      <rect
         style="fill:#4d4d4d;fill-opacity:1;stroke:none"
         id="rect2233"
         clip-path="url(#clipPath3311)"
         transform="matrix(1.2719672,0,0,1.2719672,-194.97645,-224.85641)"
         y="131.10234"
         x="70.866142"
         height="708.66144"
         width="637.79529" />
    </g>
  </g>
</svg>
