<?xml version="1.0" encoding="UTF-8" standalone="no"?>
<!-- Created with Inkscape (http://www.inkscape.org/) -->
<svg
   xmlns:dc="http://purl.org/dc/elements/1.1/"
   xmlns:cc="http://creativecommons.org/ns#"
   xmlns:rdf="http://www.w3.org/1999/02/22-rdf-syntax-ns#"
   xmlns:svg="http://www.w3.org/2000/svg"
   xmlns="http://www.w3.org/2000/svg"
   xmlns:sodipodi="http://sodipodi.sourceforge.net/DTD/sodipodi-0.dtd"
   xmlns:inkscape="http://www.inkscape.org/namespaces/inkscape"
   width="502.30936"
   height="311.81146"
   id="svg2"
   sodipodi:version="0.32"
   inkscape:version="0.46"
   sodipodi:docname="flux.svg"
   inkscape:output_extension="org.inkscape.output.svg.inkscape"
   version="1.0">
  <defs
     id="defs4">
    <inkscape:perspective
       sodipodi:type="inkscape:persp3d"
       inkscape:vp_x="0 : 526.18109 : 1"
       inkscape:vp_y="0 : 1000 : 0"
       inkscape:vp_z="744.09448 : 526.18109 : 1"
       inkscape:persp3d-origin="372.04724 : 350.78739 : 1"
       id="perspective10" />
    <inkscape:perspective
       id="perspective2447"
       inkscape:persp3d-origin="372.04724 : 350.78739 : 1"
       inkscape:vp_z="744.09448 : 526.18109 : 1"
       inkscape:vp_y="0 : 1000 : 0"
       inkscape:vp_x="0 : 526.18109 : 1"
       sodipodi:type="inkscape:persp3d" />
  </defs>
  <sodipodi:namedview
     id="base"
     pagecolor="#ffffff"
     bordercolor="#666666"
     borderopacity="1.0"
     gridtolerance="10000"
     guidetolerance="10"
     objecttolerance="10"
     inkscape:pageopacity="0.0"
     inkscape:pageshadow="2"
     inkscape:zoom="0.98994949"
     inkscape:cx="336.84453"
     inkscape:cy="315.22013"
     inkscape:document-units="px"
     inkscape:current-layer="layer1"
     showgrid="false"
     inkscape:window-width="1678"
     inkscape:window-height="1004"
     inkscape:window-x="2"
     inkscape:window-y="2"
     showguides="true"
     inkscape:guide-bbox="true" />
  <metadata
     id="metadata7">
    <rdf:RDF>
      <cc:Work
         rdf:about="">
        <dc:format>image/svg+xml</dc:format>
        <dc:type
           rdf:resource="http://purl.org/dc/dcmitype/StillImage" />
      </cc:Work>
    </rdf:RDF>
  </metadata>
  <g
     inkscape:label="Layer 1"
     inkscape:groupmode="layer"
     id="layer1"
     transform="translate(-429.05196,-166.19672)">
    <g
       id="g3232"
       transform="translate(313.26914,62.228456)"
       inkscape:export-filename="/home/banderlog/Desktop/g3287.png"
       inkscape:export-xdpi="45.02721"
       inkscape:export-ydpi="45.02721"
       style="fill:#000000;fill-opacity:1;stroke:#000000;stroke-opacity:1">
      <path
         id="path2453"
         d="M 493,104.46875 C 358.14551,104.28355 165.38165,157.00789 202.03125,280.59375 C 202.03125,280.59375 199.29393,289.14764 199,301.34375 C 190.69139,298.39989 182.12583,295.06133 173.25,291.21875 C 182.10547,297.88674 190.73415,303.80427 199.15625,309.0625 C 199.97369,321.29185 203.67036,335.73456 214.15625,348.78125 C 213.32281,342.85456 215.04607,333.08519 220.125,321.03125 C 345.05134,385.33501 416.18131,296.37369 415.1875,245.75 C 405.77975,269.0454 353.02293,343.20561 225.625,309.625 C 255.40591,254.42306 347.47907,167.71631 560.625,160.40625 C 560.625,160.40625 395.96515,132.10848 262.625,208.375 C 262.625,208.375 353.66104,112.90488 560.125,109.875 C 540.94789,106.32368 517.97305,104.50305 493,104.46875 z"
         style="fill:#000000;fill-opacity:1;fill-rule:evenodd;stroke:#000000;stroke-width:1px;stroke-linecap:butt;stroke-linejoin:miter;stroke-opacity:1" />
      <path
         id="path3228"
         d="M 252.03306,286.16148 L 261.12443,273.53457 L 278.8021,273.02949 L 271.22596,285.6564 L 252.03306,286.16148 z"
         style="fill:#000000;fill-opacity:1;fill-rule:evenodd;stroke:#000000;stroke-width:1px;stroke-linecap:butt;stroke-linejoin:miter;stroke-opacity:1" />
    </g>
    <g
       id="g4748"
       style="fill:#000000;fill-opacity:1;stroke:#000000;stroke-opacity:1"
       transform="translate(0,-62)"
       inkscape:export-filename="/home/banderlog/Desktop/g3287.png"
       inkscape:export-xdpi="45.02721"
       inkscape:export-ydpi="45.02721">
      <g
         inkscape:export-ydpi="90"
         inkscape:export-xdpi="90"
         transform="translate(317.17249,62.629456)"
         id="g3287"
         style="fill:#000000;fill-opacity:1;stroke:#000000;stroke-opacity:1">
        <path
           style="fill:#000000;fill-opacity:1;fill-rule:evenodd;stroke:#000000;stroke-width:1px;stroke-linecap:butt;stroke-linejoin:miter;stroke-opacity:1"
           d="M 112.63201,471.65074 L 112.37947,443.87154 C 112.37947,443.87154 114.2735,429.85568 130.94102,428.21418 C 130.94102,428.21418 143.03528,428.07742 147.86108,428.46671 C 152.59771,428.84881 154.23001,439.40302 148.36616,439.32586 C 148.36616,439.32586 132.92392,439.35321 129.17326,439.07332 C 126.71755,438.89007 123.61742,447.28081 129.04699,447.28081 C 129.04699,447.28081 142.81928,447.08174 148.61869,447.40708 C 153.13686,447.66054 152.30556,458.22506 148.74496,458.26622 L 126.90041,458.51875 C 126.90041,458.51875 123.86996,457.38233 123.49115,463.94832 L 123.36488,472.02954 C 123.33809,473.74436 116.79888,478.84808 112.63201,471.65074 z"
           id="path3240"
           sodipodi:nodetypes="cccssscssccsc" />
        <path
           style="fill:#000000;fill-opacity:1;fill-rule:evenodd;stroke:#000000;stroke-width:1px;stroke-linecap:butt;stroke-linejoin:miter;stroke-opacity:1"
           d="M 187.13076,432.6336 C 187.35273,439.80368 187.13076,460.03398 187.13076,460.03398 C 189.65614,475.57748 207.71262,476.7015 208.21769,476.57523 C 208.72277,476.44896 220.59206,476.44896 220.59206,476.44896 C 230.31478,476.32269 227.96018,465.25689 224.1276,465.33728 C 219.58291,465.43261 208.97531,465.33728 208.97531,465.33728 C 200.88522,465.33728 198.36871,455.23576 198.36871,455.23576 L 198.74751,433.26494 C 198.84798,427.43733 187.01498,428.89357 187.13076,432.6336 z"
           id="path3242"
           sodipodi:nodetypes="cssssscss" />
        <path
           style="fill:#000000;fill-opacity:1;fill-rule:evenodd;stroke:#000000;stroke-width:1px;stroke-linecap:butt;stroke-linejoin:miter;stroke-opacity:1"
           d="M 261.62951,433.26494 C 261.5887,440.63137 261.75578,461.92802 261.75578,461.92802 C 263.61505,482.82566 301.11536,480.87511 301.278,461.92802 C 301.278,461.92802 301.67297,438.35671 301.53054,432.50733 C 301.36974,425.77715 291.30187,427.29475 291.30274,432.6336 C 291.30339,436.55206 291.38809,451.87686 291.42901,458.01368 C 291.48918,467.03856 272.34181,466.13783 272.36238,457.88741 C 272.38198,450.02971 272.3248,441.34206 272.23611,433.26494 C 272.15956,426.29406 261.6667,426.55163 261.62951,433.26494 z"
           id="path3264"
           sodipodi:nodetypes="cssssssss" />
        <path
           style="fill:#000000;fill-opacity:1;fill-rule:evenodd;stroke:#000000;stroke-width:1px;stroke-linecap:butt;stroke-linejoin:miter;stroke-opacity:1"
           d="M 338.77991,436.16913 C 351.90773,453.59383 345.242,457.16443 339.53752,466.59997 C 334.33631,475.20307 341.93451,478.34751 346.22979,474.17612 C 349.1952,471.29624 355.32116,463.82205 355.32116,463.82205 C 360.37192,457.25606 363.65492,463.94832 363.65492,463.94832 C 363.65492,463.94832 367.69893,470.44873 369.96837,472.78716 C 377.19776,480.23247 383.32899,473.52223 380.0699,468.36774 C 369.17318,451.13375 370.33757,451.06499 379.56482,436.2954 C 383.05085,430.71549 375.99701,424.33271 371.10479,430.61329 C 368.70307,433.69659 363.90746,441.47243 363.90746,441.47243 C 363.90746,441.47243 359.2355,446.39692 354.68981,441.09362 C 354.68981,441.09362 349.45727,432.09729 345.97725,429.47687 C 340.26266,425.17384 336.32983,432.91712 338.77991,436.16913 z"
           id="path3266"
           sodipodi:nodetypes="cssccssssccss" />
        <path
           style="fill:#000000;fill-opacity:1;fill-rule:evenodd;stroke:#000000;stroke-width:1px;stroke-linecap:butt;stroke-linejoin:miter;stroke-opacity:1"
           d="M 571.50125,436.19005 C 584.62907,453.61475 577.96334,457.18535 572.25886,466.62089 C 567.05765,475.22399 574.65585,478.36843 578.95113,474.19704 C 581.91654,471.31716 588.0425,463.84297 588.0425,463.84297 C 593.09326,457.27698 596.37626,463.96924 596.37626,463.96924 C 596.37626,463.96924 600.42027,470.46965 602.68971,472.80808 C 609.9191,480.25339 616.05033,473.54315 612.79124,468.38866 C 601.89452,451.15467 603.05891,451.08591 612.28616,436.31632 C 615.77219,430.73641 608.71835,424.35363 603.82613,430.63421 C 601.42441,433.71751 596.6288,441.49335 596.6288,441.49335 C 596.6288,441.49335 591.95684,446.41784 587.41115,441.11454 C 587.41115,441.11454 582.17861,432.11821 578.69859,429.49779 C 572.984,425.19476 569.05117,432.93804 571.50125,436.19005 z"
           id="path3268"
           sodipodi:nodetypes="cssccssssccss" />
        <path
           style="fill:#000000;fill-opacity:1;fill-rule:evenodd;stroke:#000000;stroke-width:1px;stroke-linecap:butt;stroke-linejoin:miter;stroke-opacity:1"
           d="M 421.99123,439.32586 C 427.29414,439.26108 434.68776,439.15098 439.6689,439.32586 C 444.7067,439.50716 444.07556,447.10903 439.54263,447.28081 C 432.5517,447.54574 426.18001,447.21541 420.34973,447.40708 C 415.36627,447.57091 415.94662,457.92952 420.34973,458.13995 C 428.40041,458.51866 434.92099,458.25882 440.17397,458.51875 C 444.91119,458.75316 444.03886,465.18348 440.42651,465.21102 C 429.88056,465.29434 426.93939,465.33814 420.72854,465.46355 C 416.80165,465.54539 415.79149,474.72497 421.61242,475.56508 C 429.84358,476.75303 444.46712,475.94389 444.46712,475.94389 C 455.32626,474.55493 455.83134,463.69579 455.83134,463.69579 C 455.83134,463.69579 453.68476,450.94261 455.5788,445.63931 C 455.5788,445.63931 458.98806,431.3709 444.46712,429.09806 C 444.46712,429.09806 428.08369,429.07249 421.48615,429.3506 C 415.6129,429.60301 415.40012,439.40792 421.99123,439.32586 z"
           id="path3270"
           sodipodi:nodetypes="cssssssssccccss" />
        <path
           style="fill:#000000;fill-opacity:1;fill-rule:evenodd;stroke:#000000;stroke-width:1px;stroke-linecap:butt;stroke-linejoin:miter;stroke-opacity:1"
           d="M 521.25,428.21875 L 507.84375,428.34375 C 507.84375,428.34375 491.68162,428.72478 489.15625,446.78125 L 489.28125,455.625 C 492.31171,477.97462 507.84375,476.3125 507.84375,476.3125 L 521.5,476.4375 C 521.5,476.4375 539.81376,475.42767 539.6875,457.75 L 539.5625,444.875 C 536.65831,430.35406 521.25,428.21876 521.25,428.21875 z M 509.8125,439.71875 C 510.01078,439.70099 510.125,439.71875 510.125,439.71875 L 517.84375,439.71875 C 517.84373,439.71876 525.66719,439.82503 527.6875,447.90625 L 527.4375,456.125 C 525.54346,463.70116 518.46875,465.21875 518.46875,465.21875 L 510.375,465.34375 C 510.37499,465.34376 502.41006,463.45114 502.03125,455.875 L 502.1875,447.15625 C 502.85041,440.74809 508.42453,439.84305 509.8125,439.71875 z"
           id="path3274" />
      </g>
    </g>
  </g>
</svg>
